<?xml version="1.0" encoding="utf-8"?>
<!-- Generator: Adobe Illustrator 25.2.1, SVG Export Plug-In . SVG Version: 6.00 Build 0)  -->
<svg version="1.1" id="Layer_1" xmlns="http://www.w3.org/2000/svg" xmlns:xlink="http://www.w3.org/1999/xlink" x="0px" y="0px"
	 viewBox="0 0 250 150" style="enable-background:new 0 0 250 150;" xml:space="preserve">
<style type="text/css">
	.st0{fill:#010101;}
</style>
<g>
	<g>
		<g>
			<g>
				<path class="st0" d="M100.16,81.06c-9.54,1.19-10.15,2.11-10.19,11.17l-0.05,12.91c-0.02,5.38,0.11,10.45,0.86,14.6
					c-9.54,2.11-22,5.44-34.91,5.38c-34.88-0.15-56-21.91-55.86-52.79c0.14-32.42,26.65-51.67,57.38-51.54
					c15.67,0.06,27.19,3.19,31.95,3.98c0.28,5.69,1.01,15.06,2.2,24.75l-4.61,0.9c-3.63-13.08-8.07-18.63-17.73-21.9
					c-3.53-1.25-9.83-2.04-14.28-2.06c-23.51-0.1-38.79,15.97-38.91,44.09c-0.1,24.43,12.4,48.77,42.21,48.89
					c5.22,0.02,9.99-1.03,13.07-2.56c3.23-1.83,5.24-3.51,5.26-9.81l0.05-12.6c0.05-11.22-1.18-12.45-15.93-13.59l0.02-4.45
					l39.49,0.17L100.16,81.06z"/>
			</g>
		</g>
	</g>
	<g>
		<g>
			<path class="st0" d="M102.78,70.86v-2.22c3.53-0.46,3.92-0.72,3.92-5.36V50.54c0-4.38-0.33-4.64-3.4-5.03v-2.16
				c4.12-0.46,8.23-1.31,11.82-2.35c0,2.75,0,5.42,0,8.1v14.18c0,4.44,0.26,4.9,4.05,5.36v2.22L102.78,70.86L102.78,70.86z
				 M110.42,37.01c-2.48,0-4.7-2.09-4.7-4.64c0-2.68,2.22-4.64,4.77-4.64c2.61,0,4.7,1.96,4.7,4.64
				C115.19,34.92,113.1,37.01,110.42,37.01z"/>
			<path class="st0" d="M148.84,61.58c-1.31,3.66-2.35,7.64-2.94,9.28h-23.46l-0.85-1.11c5.42-8.56,9.8-16.2,14.83-24.89
				c-0.06,0-3.33,0-3.4,0c-4.44,0-6.14,0.26-8.88,6.34l-2.22-0.78c0.85-2.94,1.76-6.73,2.42-10.06h1.57c0.46,1.11,1.44,1.5,3.98,1.5
				h16.4l0.66,0.91c-5.03,8.63-9.54,16.4-14.51,25.15h4.18c4.57,0,6.79-0.85,10.13-7.12L148.84,61.58z"/>
			<path class="st0" d="M167.2,41.06c9.21,0,15.03,6.93,15.03,14.76c0,10.52-7.58,15.81-15.29,15.81c-9.87,0-15.48-7.45-15.48-15.09
				C151.45,46.55,159.68,41.06,167.2,41.06z M166.41,43.68c-2.81,0-5.55,2.94-5.55,10.98c0,8.1,2.68,14.31,6.79,14.31
				c2.48,0,5.16-1.7,5.16-11.24C172.82,48.64,170.47,43.68,166.41,43.68z"/>
			<path class="st0" d="M222.21,70.86v-2.22c2.61-0.39,3.07-0.66,3.07-4.64V52.7c0-5.42-2.55-6.4-4.57-6.4
				c-1.31,0-2.81,0.39-4.84,2.03c0.06,0.78,0.13,1.76,0.13,2.75v13.2c0,3.66,0.19,3.99,3.2,4.38v2.22h-14.7v-2.22
				c2.88-0.39,3.13-0.59,3.13-4.38V52.38c0-4.64-1.83-6.14-4.25-6.14c-1.63,0-3.2,0.59-5.03,1.96v16.07c0,3.66,0.39,3.99,2.81,4.38
				v2.22H186.2v-2.22c3.6-0.46,3.79-0.72,3.79-4.64V50.16c0-3.66-0.06-4.25-3.13-4.7v-2.09c3.66-0.39,7.38-1.31,11.5-2.48
				c0,1.57,0,3.4,0,4.9c1.44-0.98,2.61-1.83,3.99-2.68c2.03-1.24,3.6-2.03,5.55-2.03c3.66,0,6.08,1.96,7.32,4.97
				c1.57-1.18,2.88-2.09,4.51-3.2c1.44-0.91,3.27-1.76,5.23-1.76c5.69,0,8.69,3.85,8.69,10.52v12.67c0,3.6,0.33,3.85,3.53,4.38v2.22
				h-14.96V70.86z"/>
			<path class="st0" d="M144.55,86.29c-4.48,0.46-4.89,0.8-4.89,5.58v22.03c0,4.77,0.46,5.12,4.89,5.52v2.13h-17.77v-2.13
				c4.54-0.58,4.89-0.74,4.89-5.52v-10.82h-15.53v10.82c0,4.77,0.52,5.06,4.83,5.52v2.13h-17.72v-2.13
				c4.26-0.46,4.89-0.74,4.89-5.52V91.87c0-4.77-0.52-5.23-4.89-5.58v-2.13h17.72v2.13c-4.37,0.4-4.83,0.8-4.83,5.58v8.22h15.53
				v-8.22c0-4.77-0.58-5.12-4.89-5.58v-2.13h17.77V86.29z"/>
			<path class="st0" d="M162.5,95.33c8.11,0,13.23,6.1,13.23,13c0,9.26-6.67,13.92-13.46,13.92c-8.69,0-13.63-6.56-13.63-13.29
				C148.64,100.16,155.89,95.33,162.5,95.33z M161.81,97.62c-2.47,0-4.89,2.59-4.89,9.66c0,7.13,2.36,12.6,5.98,12.6
				c2.19,0,4.54-1.49,4.54-9.89C167.45,102,165.38,97.62,161.81,97.62z"/>
			<path class="st0" d="M210.94,121.56v-1.96c2.3-0.34,2.7-0.58,2.7-4.08v-9.95c0-4.77-2.24-5.64-4.03-5.64
				c-1.15,0-2.47,0.35-4.26,1.78c0.06,0.69,0.11,1.55,0.11,2.41v11.62c0,3.22,0.17,3.51,2.82,3.85v1.96h-12.94v-1.96
				c2.53-0.34,2.76-0.52,2.76-3.85v-10.47c0-4.08-1.61-5.41-3.74-5.41c-1.44,0-2.82,0.52-4.43,1.73v14.15
				c0,3.22,0.34,3.51,2.47,3.85v1.96h-13.18v-1.96c3.16-0.4,3.34-0.63,3.34-4.08v-12.2c0-3.22-0.06-3.74-2.76-4.14v-1.84
				c3.22-0.34,6.5-1.15,10.13-2.19c0,1.38,0,2.99,0,4.32c1.27-0.86,2.3-1.61,3.51-2.36c1.78-1.09,3.16-1.78,4.89-1.78
				c3.22,0,5.35,1.72,6.44,4.37c1.38-1.03,2.53-1.84,3.97-2.82c1.27-0.8,2.88-1.55,4.6-1.55c5.01,0,7.65,3.39,7.65,9.26v11.16
				c0,3.16,0.29,3.39,3.1,3.85v1.96L210.94,121.56L210.94,121.56z"/>
			<path class="st0" d="M249.83,115.92c-3.51,5.17-8.11,6.33-10.53,6.33c-7.71,0-12.08-5.7-12.08-12.54c0-4.03,1.9-8,4.32-10.35
				c2.59-2.59,5.81-4.03,8.97-4.03c5.64,0,9.55,4.66,9.49,9.38c0,0.98-0.06,1.96-0.75,2.13c-1.09,0.29-9.2,0.69-14.78,0.92
				c0.23,6.1,3.63,9.2,7.77,9.2c2.24,0,4.48-0.8,6.56-2.59L249.83,115.92z M239.36,97.68c-2.3,0-4.26,2.7-4.6,7.25
				c2.36-0.06,4.54-0.11,6.96-0.17c0.8-0.06,1.15-0.17,1.15-1.15C242.92,100.73,241.6,97.68,239.36,97.68z"/>
		</g>
	</g>
</g>
</svg>
